/* XPM */
static char *_16d200054de429f898757d58f9eed81hf0GBIeqSZd4FuX2[] = {
/* columns rows colors chars-per-pixel */
"64 68 244 2 ",
"   c #1B1C1A",
".  c #211C18",
"X  c #1C2317",
"o  c #1C341E",
"O  c #23231C",
"+  c #27281A",
"@  c #2B321C",
"#  c #333214",
"$  c #1C1C27",
"%  c #1F1C34",
"&  c #221D24",
"*  c #261C27",
"=  c #241C39",
"-  c #1D2825",
";  c #232323",
":  c #2B2C25",
">  c #24242B",
",  c #2C2C2C",
"<  c #282827",
"1  c #332D28",
"2  c #2C3328",
"3  c #33342C",
"4  c #37382A",
"5  c #2D2C32",
"6  c #2A2837",
"7  c #332C36",
"8  c #2D3333",
"9  c #293336",
"0  c #343434",
"q  c #393533",
"w  c #363A34",
"e  c #3A3A34",
"r  c #34343B",
"t  c #39363B",
"y  c #363A3B",
"u  c #3B3B3C",
"i  c #433D0F",
"p  c #433A38",
"a  c #433D25",
"s  c #3C430A",
"d  c #3D4139",
"f  c #3E4228",
"g  c #484805",
"h  c #515011",
"j  c #625B07",
"k  c #5C6A09",
"l  c #696B06",
"z  c #777606",
"x  c #676818",
"c  c #777517",
"v  c #71700D",
"b  c #464529",
"n  c #43443C",
"m  c #474738",
"M  c #55593A",
"N  c #515133",
"B  c #686826",
"V  c #787828",
"C  c #6D6C37",
"Z  c #655E34",
"A  c #393543",
"S  c #3C3C43",
"D  c #353544",
"F  c #323246",
"G  c #413D47",
"H  c #403D52",
"J  c #3C4245",
"K  c #3D4B51",
"L  c #434343",
"P  c #4B4C44",
"I  c #4C4B4B",
"U  c #464749",
"Y  c #524C49",
"T  c #4D524B",
"R  c #4A5445",
"E  c #52544C",
"W  c #575848",
"Q  c #4C4C53",
"!  c #484756",
"~  c #544B56",
"^  c #4C5355",
"/  c #535354",
"(  c #5B5B53",
")  c #54535B",
"_  c #5C5B5B",
"`  c #585655",
"'  c #645C5A",
"]  c #655848",
"[  c #5C6258",
"{  c #757646",
"}  c #66675A",
"|  c #726C59",
" . c #6D6C4D",
".. c #5C5C63",
"X. c #585666",
"o. c #51506B",
"O. c #665D64",
"+. c #634E61",
"@. c #5D6365",
"#. c #646463",
"$. c #686869",
"%. c #746C69",
"&. c #6C736A",
"*. c #787769",
"=. c #6A6874",
"-. c #756C76",
";. c #6C7478",
":. c #7B7B74",
">. c #7C7C7C",
",. c #767576",
"<. c #847803",
"1. c #827516",
"2. c #847932",
"3. c #837968",
"4. c #827A7B",
"5. c #8E786B",
"6. c #857A4F",
"7. c #7C8404",
"8. c #7C821B",
"9. c #7C8428",
"0. c #7A8377",
"q. c #76846B",
"w. c #77824C",
"e. c #878607",
"r. c #938C06",
"t. c #8C9405",
"y. c #989806",
"u. c #888616",
"i. c #979716",
"p. c #918E17",
"a. c #A39906",
"s. c #AA9B14",
"d. c #99A405",
"f. c #9AA417",
"g. c #A5A502",
"h. c #ABAB02",
"j. c #A9A808",
"k. c #B5AA05",
"l. c #B7B603",
"z. c #A6AA17",
"x. c #B9B616",
"c. c #AFB110",
"v. c #878827",
"b. c #92912F",
"n. c #99A22D",
"m. c #B0AD2E",
"M. c #A59A2B",
"N. c #C6BB05",
"B. c #C8B713",
"V. c #C4B42C",
"C. c #B9C306",
"Z. c #B2C119",
"A. c #BDC22F",
"S. c #C7C506",
"D. c #D4C703",
"F. c #C6C418",
"G. c #D4D20C",
"H. c #E3D506",
"J. c #CCC72A",
"K. c #EBE724",
"L. c #9A9848",
"P. c #8F8F4F",
"I. c #9AA344",
"U. c #A8A657",
"Y. c #B0AD4E",
"T. c #898465",
"R. c #999867",
"E. c #83827D",
"W. c #888979",
"Q. c #938C78",
"!. c #8C927B",
"~. c #97967C",
"^. c #938E68",
"/. c #A39873",
"(. c #AEAC70",
"). c #9BA170",
"_. c #C5BC5F",
"`. c #CAC84D",
"'. c #CCCB6F",
"]. c #BBC042",
"[. c #7A7A86",
"{. c #75768A",
"}. c #847B86",
"|. c #887B94",
" X c #7E8685",
".X c #7D8F8B",
"XX c #848484",
"oX c #8C8B84",
"OX c #8B8C8B",
"+X c #888688",
"@X c #938A88",
"#X c #8C9388",
"$X c #93938C",
"%X c #989688",
"&X c #8A8895",
"*X c #958B95",
"=X c #8C9597",
"-X c #949394",
";X c #9A949B",
":X c #9B9B9B",
">X c #979796",
",X c #A49B98",
"<X c #A5998B",
"1X c #9CA498",
"2X c #9BA38C",
"3X c #A7A78C",
"4X c #A4A49D",
"5X c #A7A798",
"6X c #B3AE92",
"7X c #9B99A5",
"8X c #998FA8",
"9X c #A49CA7",
"0X c #AC9CAA",
"qX c #9CA2A6",
"wX c #9FA2B5",
"eX c #A7A6A7",
"rX c #B4AAA6",
"tX c #AAB3A8",
"yX c #B7B5A9",
"uX c #A9A8B4",
"iX c #B3AAB6",
"pX c #ABB3B4",
"aX c #B7B7B5",
"sX c #C1B9B5",
"dX c #C1BD84",
"fX c #BCC4B7",
"gX c #C5C8B9",
"hX c #D2CDB1",
"jX c #D1D581",
"kX c #BAB8C7",
"lX c #B4ADC9",
"zX c #C5BBC5",
"xX c #BDC4CC",
"cX c #C7C6C7",
"vX c #CAD3C6",
"bX c #D6D6CA",
"nX c #CAC6D4",
"mX c #D6D6D6",
"MX c #D1CFD2",
"NX c #E3DCD6",
"BX c #D7D4E2",
"VX c #DDE7E3",
"CX c #E5E6E9",
"ZX c #DCE4D6",
/* pixels */
", F : 7 3 + , 3 5 0 1 8 y 1 0 2 2 3 3 0 p t o q 2 1 4 6 3 @ 8 0 r 4 q 4 @ 1 8 , 5 8 , 1 2 9 + 8 2 5 , 9 o 1 1 7 r + 9 A > 3 7 9 ",
"E / I E Q E / ^ Q E ! sXc.k.B.N.B.gXxXvXMXnXcXs.j.a.aX, t 4.4XcXcXnXaXcXx.x.k.#.>. X) : d U L n I b Y S ! T T ^ Y E T M ^ N Y Q ",
"Y ` ^ / / X.) T E P X.mXhXx.B.l.k.3XyXJ.F.bXxXhXB.S.;XX e *XkXaX:XJ.%XV.j.k.g.v ] ) S O J -.p.p.r.p.| >.%.O.' P P U ~ P ! U Q Q ",
"4.E.>.>.+XE.[.0.0 I ) vXnXl.k.h.u.~.V.D.j.gXxXaXy.c.#., u 7XvXtXOX^.x.P.z e.z ] -.Q 4 + r v.N.D.a.e.W.eXkXx.V.j.} #.M.z.q.[.0.:.",
"zXrXm.6X5XqXOXXX+ ( ! mXhXz.a.r.v ,XN.j.).4XuX>XP.y.` > J =XxX8X*X+X6X1X .e.l W &.X.t + y y.D.N.7.[ E.rXMXD.H.G.W #.S.S.b.oXaXcX",
"aXrXc.Y.:.>.E.4.> ~ / vXgXy.e.z  .E.(.).eXL.!.0.Q.p.W $ r [ rXV.M.0X=X$X:.j ] =...X.e X 4 s.H.u. ..X0X`.`.L.h.h.! } g.y.z ' eXuX",
"tX,X7.C %. XoX=., U / nXzXa.1.z 4.%X>XqX8Xy.+X+X[.3.( O 0 E }.g.t.m.@X>X-X .+.&.U n q > A r.x.l ' q.J.D.S.+X1.y.N =.{ Z N E L.+X",
"aXeX{ -.9XOX[.[ ; U P mXmXP.{ { OXqXwXyX@Xt.#X,X0.oXI > p ! &.P.R.L.,XeX%X}.!.=.w t q : S <.<.C 0. Xn.B.I.*.v 1.P =.;.=...*.y.| ",
"eXaX>XXXOXOX` U O 0 I mXcX>X-X>.%X(.7XiXT.P.=X,X7XW./ > : L =.[.#X,.:...O.O.=.^ 4 J 9 4 e w.B :.+X9X=XL.+X@X{ B _ >.OX+XE.>X*.} ",
">X>X>X>.$.-.I L ; , U mXmXpXOX+XQ.S.L.+XW.-X+X>X$X&X) < O L Q / ^ P ! F w 4 q F 0 , > 4 S {.@X7X4.).>XW.&X9X|.( ,.-X-X-X-X:X$X:.",
"+X>.+X+X#./ L L ; , I mXmX:X>.>X|.B.g.:.$X@X%XqX:X+X) F + m n 4 7 , 5 @ o 2 + 3 $ + e e A {.iX3XL.V W.$XR.:.*X$.:.+X-XOXXX+XOXXX",
"_ $.#.#.I u 0 , ; > / cXmX-X+X$X(.N.a.;.1X*X:XoX7X0.( r ; 0 ! S 4 0 F U J I ~ @.} b A 4 p ,.pXW.v.o.}.4XC.} E.$.XX#.}.#...,.` _ ",
"I I 0 L u ; ; ; ; , / eXmXaX-X>.c.h.i.,.8X%XXXE.P.}.@.3 ; 0 U T @.{ R.yXaXaXkXNXNXt.b e q $.eXE.,.$.O.} c f I T / L L u L L L u ",
"        ; , , , 8 t ` +XcXMXOX+X$Xb.4.8XoX:X&X}.v.*.( 0 , 4 U >.yXK.K.hXMXmXxXgXhXz.l 0 4 / ,.#.' _ Y n h 1 0 r e 3 e , : ; ; , ",
"0 , , 0 , , , , 0 0 ` #.eXMX>XeX&X~.E.eXOXW.$X%X%.=.` y & + G 5XK.N.i.$X$X3X3X1Xi.%.h @ u q r F 0 4 w 5 A q d F , ; ; ; < ; ; ; ",
"t u 0 0 u 0 u 0 0 u ` I +XcXeX-XeX,X3.#X=XE.OX4X7.W ` 0 > : ~ 4XN.u. XqX/.H.D.Q.r.W j 4 y @ r 5 0 7 < t 8 1 : y y u u t y y t y ",
"( ~ d n 4 ! p u J D I T &.xX$X,X<XC.i.3.>X=X9X$Xx ( #.I > + ! 6XH.u.0.$XS.G.XX+Xz ' h 3 ! N ] W W ~ 5 n ~ Y I Y Q I m ^ Y Q Y R ",
"$X;X#XOX>X-XW.-X+X0 6 P ! kXyXv.W.i.v.5X:.$XoX+X%.} _ / . , m G.G.T.XX3XG.G.:.oXv ] 3 e / S.g.z.#.Y I ) ,.%X*X-X%X7X*X=X*X*X<X8X",
"hXJ.m.bXbXJ.y.;.*.G & E W &XyXv $.~.%.oX$.=.eX&X{. X=.I O * ] F.^.XX[.*Xf.z | :XXXE A t m j.l.e...w J q.pXF.B.A.bXz.0X5XC.S.F.mX",
"J.h.e.m.x.a.c #.} A < E P -.%X%.} +X&X*.W.$.E.,.( {.X.n > X U T.&X XW.C.{ $.$.#...^ 4 1 q y.p.] } 5 U %Xx.D.N.^.J.d.Q.5XB.g.t.4.",
"h.p.).j.a.t.v T =.t > L ! _ -X+X-.oX=.-.:.#.*...&.( Y , > X J =XOX;.*XT.M L 4 d u d u O _ d.z $.~ + Q %XF.S.^.$Xj.d.T.-XF.a.<.;.",
"r./.7Xh.a.v l M X.e ; J ..L ,.} ) ( L U I I I D 8 : ; 1   O 0 #X*.L Y I : > ; - , ; > > #.^.7.0...O K =X3X^.E.,Xy.T.[.2XJ.a.e.#X",
"/.-X2Xx.1.Z N }.( 0 O I N Q S 8 p , + X ,   O < $ * . + > & 5 ~ E p >   >   ; > + 5 ; : :.-X^.=XT , I OX5X$X:X=X(.}.%X=X(.i.z ;.",
"7X7X!.P.M ..[.:.` u > n ~ I q 8 * $     $ . + $ F q u 9 F y u } ;.%.x x k v c W U 5 t / 4XzX0XpX@.; ~ oX-XrX`.%X-X:X:X>X5XP.6.E.",
"&XY.b.:.;.XXoX=.Q A X S -.b.p.2.l ' :.;.;.P , t E V p.r.b.u.>XxXcXgXN.N.x.l.g.b.V ; S }.vXvXnXpX#.7 U 0.!.uX(.%X:X0X].0X+X>X-X9X",
"#Xh.i.%XOX&X@X} I q   L I.C.C.g.b.+X7X:X:XR I I 8.x.l.I.Y.Y.cXgXnXfXx.M.l.h.a.t.<.; w &XmXyXMXrXm.+ ! Y.0X4X1X8X_._.m.9X-XqX:X4X",
"$Xt.P.:X$XOX}.( d t 6 p c.l.y.P.-.-.,.&.-.3 / R I.'.U.XXL.0X(.9X9XOXP.*Xb.v.a.c j ; d @XjXeX%XaXx.: N l.5.W.W.Y.D.x.{ w.XXE.OX+X",
"+X{ }.XX:.:.$.I w G ; b g.r.V ' ,.C C C _ @ Q Q ,XCX(.,Xn.(.k.5XU.(.8X2Xe.W.r.B h X e W.S.XX+X5Xe.@ L <.h X.( g.r.z l h ' =.) #.",
"#.( #.R ^ T S 5 8 7 ; e j.e.$.>.>Xv.r.v O.< J I %XZXG.rXU.l.2.2XS.h.eX2XP.1X2.} h X S .Xb.:.*X6Xk ; L i q 7 4 g i h h t p Y I ^ ",
"d e e , r : ; O X O w b Y.8.&.>X^.T.u.l ' O n Y :XCXB.3XF.p.E.$Xm.b.9X>X/.~.4.#.g + S R.OX>XaXcXZ ; m 0 2 + 6   O O % & * q , d ",
"> 0 5 6 e e w J S ` U I mX}.>X3X8.Q.V c ' @ 0 L %XNXB.1Xl.l 0.1X*X5X,XXXz.7.:.W s   p G.ZXaXMXqX` = n y 2 3 0 2 r 5   : ; O + = ",
"I $.%.3.Q.*X$X=X$X+XE 9 NX9XuX1Xu.*X| :.' i > ! 7XVXV.(.y.c ,.>XE.qX9X:Xk.u.:.X.i , b s.VXfXzX5X) ; U 4 L m m m b b m 0 w y H p ",
"=.~.6Xh.z.Q.5XuXuX1X[ r bXiXaX$XV wX.X{.} i 7 ! -XCX3Xx.y.v 3.>X9X,X>XeXk.<.+X` s X x y.vXiX,Xz.R 5 P v y.r.y.j.j.r.e.] Y Y P E ",
"$.6Xx.g.e.%.uX3X5XqXR 7 BXeXeX9X5.@X*.+X$.s . m [.~.F.y.c *.:.uX1X7X0.$Xk.r.} / s ; p i.vXbXx.y.M O ~ -.t.z y.y.y.j.j.d.u.+Xn ) ",
"$.z.y.e.} oX,Xc.m.*.[ 7 CXvX7X7X,Xv.oXeX#.s ; e W >XM.1.3.*.OX>XeX}.2X:.c.<.=.I q % p y.vXiXh.z E O I -X,.%.y.y.7.p.z v v *.m / ",
"} d.z.| &.1X4.k.e.%.=.5 hX1X=X%XqX#XoX>...g O 8 ` eXmX3Xx.F.n.W.[.,.0.E.g.p.$.L # ; x Q.BXsXc.j ~ < I gX5X3Xi.z *.| h | %.} t Q ",
"#.*.5.eX+X{.+Xz.1.#.T 0 bX1XiX4X:X1XqXXXO.g O , +.OXVXgXS.p.c 0.>X;XoX,Xi.7.} m * + 7.%XcXrXu.v b > / gXuX*Xt.c XX4.W.#.+X$.L U ",
"#.>X9X$X2X1Xf.g.v =.W 6 BXfX+X3XV.m.+X+X} i * > L ,.mXaXr.z Z :.OX9X~.m.d. .} S ; > W oXvX%Xl j # O I aXyX<Xi.v 0.#X7X-XeX@.2 P ",
"%.nXqX2X=X#Xp.<.z &.W 5 zXmX&X%Xk.p.W.eXO.s # O P } kXvXz ] |.OX5X#Xv.{ | } ,.0 $ e U XXuX+Xv g g A P uX4X%Xd.e.;.OXW.>.>X/ e d ",
"$.BX1XtXOX*Xz v | } R 6 yXbX+X,XR.T.OX$X} b s + f X.>XcXW.;.q.,.[.[. .O.,.=.( y ; 7 P [ ` Q j g b 4 ! |.=.(  . .} $.#.( $.` A t ",
"=.bXpX>XM.b.*. .|.oXW < 1XmX7XoX:XqX+XW.} m # , 0 ) $.<X=X:.,.@.' ) e N ` [ I , + 0 I E L p m f A J J G 7 : q 3 q 7 r 9 F 1 , F ",
"=.mXkX7XL.P.@Xb.P.W.) , OXMX9XOXuX>X$.&X{.` s X 7 Q P W ^ P U w w 8 + @ J U e , , u U P U n n S G K P q 2 F 2 - > > 1 6 + : : 0 ",
"=.hXY.U.*X*XI.j.t.*.o.; =.BXeXqX7X$X:.9X[./ g O 7 ! ! u 9 8 7 < 6 0 e u d H T ~ ! X.X...$.} } ..x B x x O.=.) @...X.' _ / ..e L ",
"$.'.c.d.4X~.j.e.7.$.) + T CX7X>XP.E.oX>Xq.( h O : n ) B B B x x B B Z #.#.=.E.>.XXoXW.&X#X;X;XI.j.j.y.7.>X<XY.L.~.U.L.2.4X{.p / ",
"[ l.a.V eX~.n.l x $.u : Y NX9XW.t.*.>XE.} ) h ; : e B j.j.k.l.c.h.c.i.b.$X:X4XeX4XyXrXaXaXzX_.C.h.h.a.L.gX'.G.m.sXB.l.i.U.;.p / ",
"#.k.e.[.9X;XXX2.C ' ; 5 / NX9X-XV =.9XE.} / g : - A z S.N.N.B.S.N.S.C.y.rXsXeXaXtX(.(.aXlXsXl.y.b.b.a.6X(.Z.m.kXdXk.h.a.V [ 1 m ",
"&.s.u.0.:X-X&X>XW.( ; 5 Q mX>XeX,.;.OX$X&.( g O   u j l.c.g.k.j.k.g.g.e./.iXyX5XaXl.d.2XqX,XY.b.eX(.B.C.f.}.*XtXi.i.j.V :._ , m ",
"_ d.u.&X!.eX*X1X&X` X w / MX4XeXeX4X&X9X#.T # + * t q n.z.i.a.y.y.y.y.e.l E.kXuX5XM.i.1XtX9XyX,X(.x.s.M.W.*X9X1X4.:.j.:.$.) 9 A ",
"P 9.:.OX2XOX:X&X@.U ; 0 Q aX:XoX4X-X+X&X} ` e & & 3 4 =X=X%Xy.e.y.<.e.v v &.uXaX4X=XXX$XaX~.:X5XZ.0.{.:.;XrX6X9X.X$Xg.3.{.^ < p ",
"I +XoX*X&X*.#.E / ; 5 u E tXeX=XoX7X-X[.} / 4 ; > w 8 aXmXgXy.v x l x >.-.!.5XaX%XiX*X,X/.B.x.>XoXXX;.!.~.S.h.iXuX@Xf.*.=.E 7 p ",
"P ,.[.=.#.( ) ~ E ; 5 y L $X-X1XXX-XXX,.$.` 3 ;   S 0 tXmXcX9.*.,.*.3.3.*X8Xb.5XrXtX#XyXJ.3XQ.@XeX8XW.wX6Xj.p.3X;X9X,.| &./ > 3 ",
"m ! 5 M o.W Q W Q < 0 L I >.$.=.#.#.#.#./ I w ; ; 0 3 9XbXvX*.[.0.$Xc.h.p.eX%XOXaX2X1XpX3X@Xz.5Xz.5X<XiXm.e.~.eXeX~.z.z.*.^ > q ",
"W ) I 2 : ; , 5 5 ; d P t u u 4 L u u u t L u   $ F 0 -XzXaX!.eX7X3Xz.h.z %XeX$XuX>X8X%XG.m.c >X5XyX%XeXR.*XlX>XoX;XrX3.| Q ; 4 ",
"Q ! I L 3 A % 5 : : 4 L t t > & $ O > ; $ $ ; X $ < 0 +X9X}.:.>.,.4.t.c v W.5X;.&X#XrXJ.N.<.%XoXuX1X&X$XeXoX#XoXx.;X7X=X{.) < e ",
"! -.*Xj.m.c.e.*.~ ~ ! U 3 4 ; 7 0 , > : 7 , > : + 6 3 [ X.S e A A e a 1 W *.{.[.oXf.sXv.z 3.OX;.,.{.&X$X>X[.[.tX^.$.q.q.#.) + D ",
"R ,Xm.G.D.S.N.V.f.v.Q.}.#.` U S 5 3 t 3 7 0 t 3 q r n Q L b D 3 3 3 3 D 4 T ( O.' C &.M M X.' O.` } =.[ ..$.( &.' E =...` , , t ",
"R ,XD.H.x.U.R.R.).U.sXM.F.V.s.s.a.e.p.r.u.u.V _ #.#./ ..I ~ n J L L n D 4 7 S 0 D u 2 3 y r u r p w 2 , 7 r 3 7 , 0 1 @ r , , U ",
"/ ,X'.(.c.%XiXpXuXaXsXdX(.U.U.h.j.j.g.g.j.h.r.v.W.W.eX+X@X@XE.XX*.U ) S w 3 3 2 0 : : , 4 : 5 @ < 6 > : , > + * 6 > ; < , 0 U P ",
"Y eXkXeX(.rXaXpXiXuXkXaXpXeX9XU.P.^.P.L.L.t.t.e.oX>XsXcX`.`.,XaX+X! I E m S u t q A e t r 3 , 0 9 F 5 , r 8 9 r 0 0 r D u J m ) ",
"I 5XkXcXuXgXgX`.Y.P.aXtXfXpXnXyXeXI.P.*X@XT.P.P.&XuXyXiXG.l.@X7X$.r d E P C 9.c V ~ S S S m I U N V x h h h b d 4 S e G Q T ! ` ",
"Q 4XzXnXpXeX0XS.y.z yXyXMXkXcXaXsX'.Y.rX,X,X;XrXeX:XtXiX].P.oX{.` $ e I ~ t.y.a.y.| &X+X:.) ` c a.l.l.t.V r.6.*.|.9.*.=...M ! ` ",
"I eXuX7X-X}.%.y.c Z eX;X,XrX>X$X$XuX:XeX7XuXpXaX2X,.OXeX@X}.}.@.E : 5 n ~ v.e.e.z | MXvXaXX.( b.m.m.m.b.}.Y.rX4X'.Z.:XeXqX} d X.",
"/ ~.[...` W ` B h ' } _ E ] $...` E / ..@.;. X&.} X.( Q X.` / P L 4 $ 0 Y }.e.z x %.7X4XeX$.( |.|.XX}.@XP.(.3X$Xl.t.,.5XcX>., P ",
"! $.( e r : 8 2 1 9 8 9 t 1 0 : 3 r 5 3 1 3 5 1 7 F 2 : r 7 3 8 r 3 + , I oXv v $.OX#.OX[.#.P }.W.1X>X(.D.l.9XeXi.v.*.OX7XX.; R ",
"I 0 ; ; ; & > $ > O & > O ; ; O ; & > O + ; >   & ; O O ; ; ; * < X ; 8 S S s g T E / ` _ ~ U ` _ XX,Xj.z.t.3.%X8.| $. X,.( ; / ",
"/ P L L q 0 0 8 5 3 , 7 , 8 5 3 3 5 7 : 3 5 0 , , , 3 , , 8 5 7 , : 5 , u G b g w : ;   ; < 0 I X.P h h Y m ~ k g P U Q U n , ) ",
"I / / T L L L L I P L U e w r q q t t 0 e t y e w 0 q 0 w y t t t u S 4 e I n n L u u u t q u L L + O ; & > : ; + < ; , < O ; ! ",
"u u u e e u e u 0 0 t u w y t G w t y w e y y u w w 0 w w y y t q 0 D 4 4 y t A y 0 w S t q 0 t e 0 y A e 0 3 F 0 y 0 r r q w J "
};
